<svg xmlns="http://www.w3.org/2000/svg" viewBox="0 0 1600 900" preserveAspectRatio="xMidYMid slice">
  <defs>
    <linearGradient id="glow" x1="0" y1="0" x2="1" y2="0">
      <stop offset="0%" stop-color="#FFFFFF" stop-opacity="0.0"/>
      <stop offset="30%" stop-color="#FFFFFF" stop-opacity="0.95"/>
      <stop offset="75%" stop-color="#F0DCAA" stop-opacity="0.70"/>
      <stop offset="100%" stop-color="#F0DCAA" stop-opacity="0.0"/>
    </linearGradient>
  </defs>
  <g opacity="0.90">
    <line x1="800" y1="450" x2="1600" y2="450" stroke="url(#glow)" stroke-width="2" transform="rotate(0.0 800 450)" /><line x1="800" y1="450" x2="1600" y2="450" stroke="url(#glow)" stroke-width="1" transform="rotate(4.285714285714286 800 450)" /><line x1="800" y1="450" x2="1600" y2="450" stroke="url(#glow)" stroke-width="2" transform="rotate(8.571428571428571 800 450)" /><line x1="800" y1="450" x2="1600" y2="450" stroke="url(#glow)" stroke-width="1" transform="rotate(12.857142857142858 800 450)" /><line x1="800" y1="450" x2="1600" y2="450" stroke="url(#glow)" stroke-width="2" transform="rotate(17.142857142857142 800 450)" /><line x1="800" y1="450" x2="1600" y2="450" stroke="url(#glow)" stroke-width="1" transform="rotate(21.428571428571427 800 450)" /><line x1="800" y1="450" x2="1600" y2="450" stroke="url(#glow)" stroke-width="2" transform="rotate(25.714285714285715 800 450)" /><line x1="800" y1="450" x2="1600" y2="450" stroke="url(#glow)" stroke-width="1" transform="rotate(30.0 800 450)" /><line x1="800" y1="450" x2="1600" y2="450" stroke="url(#glow)" stroke-width="2" transform="rotate(34.285714285714285 800 450)" /><line x1="800" y1="450" x2="1600" y2="450" stroke="url(#glow)" stroke-width="1" transform="rotate(38.57142857142857 800 450)" /><line x1="800" y1="450" x2="1600" y2="450" stroke="url(#glow)" stroke-width="2" transform="rotate(42.857142857142854 800 450)" /><line x1="800" y1="450" x2="1600" y2="450" stroke="url(#glow)" stroke-width="1" transform="rotate(47.14285714285714 800 450)" /><line x1="800" y1="450" x2="1600" y2="450" stroke="url(#glow)" stroke-width="2" transform="rotate(51.42857142857143 800 450)" /><line x1="800" y1="450" x2="1600" y2="450" stroke="url(#glow)" stroke-width="1" transform="rotate(55.714285714285715 800 450)" /><line x1="800" y1="450" x2="1600" y2="450" stroke="url(#glow)" stroke-width="2" transform="rotate(60.0 800 450)" /><line x1="800" y1="450" x2="1600" y2="450" stroke="url(#glow)" stroke-width="1" transform="rotate(64.28571428571428 800 450)" /><line x1="800" y1="450" x2="1600" y2="450" stroke="url(#glow)" stroke-width="2" transform="rotate(68.57142857142857 800 450)" /><line x1="800" y1="450" x2="1600" y2="450" stroke="url(#glow)" stroke-width="1" transform="rotate(72.85714285714286 800 450)" /><line x1="800" y1="450" x2="1600" y2="450" stroke="url(#glow)" stroke-width="2" transform="rotate(77.14285714285714 800 450)" /><line x1="800" y1="450" x2="1600" y2="450" stroke="url(#glow)" stroke-width="1" transform="rotate(81.42857142857143 800 450)" /><line x1="800" y1="450" x2="1600" y2="450" stroke="url(#glow)" stroke-width="2" transform="rotate(85.71428571428571 800 450)" /><line x1="800" y1="450" x2="1600" y2="450" stroke="url(#glow)" stroke-width="1" transform="rotate(90.0 800 450)" /><line x1="800" y1="450" x2="1600" y2="450" stroke="url(#glow)" stroke-width="2" transform="rotate(94.28571428571428 800 450)" /><line x1="800" y1="450" x2="1600" y2="450" stroke="url(#glow)" stroke-width="1" transform="rotate(98.57142857142857 800 450)" /><line x1="800" y1="450" x2="1600" y2="450" stroke="url(#glow)" stroke-width="2" transform="rotate(102.85714285714286 800 450)" /><line x1="800" y1="450" x2="1600" y2="450" stroke="url(#glow)" stroke-width="1" transform="rotate(107.14285714285714 800 450)" /><line x1="800" y1="450" x2="1600" y2="450" stroke="url(#glow)" stroke-width="2" transform="rotate(111.42857142857143 800 450)" /><line x1="800" y1="450" x2="1600" y2="450" stroke="url(#glow)" stroke-width="1" transform="rotate(115.71428571428571 800 450)" /><line x1="800" y1="450" x2="1600" y2="450" stroke="url(#glow)" stroke-width="2" transform="rotate(120.0 800 450)" /><line x1="800" y1="450" x2="1600" y2="450" stroke="url(#glow)" stroke-width="1" transform="rotate(124.28571428571428 800 450)" /><line x1="800" y1="450" x2="1600" y2="450" stroke="url(#glow)" stroke-width="2" transform="rotate(128.57142857142856 800 450)" /><line x1="800" y1="450" x2="1600" y2="450" stroke="url(#glow)" stroke-width="1" transform="rotate(132.85714285714286 800 450)" /><line x1="800" y1="450" x2="1600" y2="450" stroke="url(#glow)" stroke-width="2" transform="rotate(137.14285714285714 800 450)" /><line x1="800" y1="450" x2="1600" y2="450" stroke="url(#glow)" stroke-width="1" transform="rotate(141.42857142857142 800 450)" /><line x1="800" y1="450" x2="1600" y2="450" stroke="url(#glow)" stroke-width="2" transform="rotate(145.71428571428572 800 450)" /><line x1="800" y1="450" x2="1600" y2="450" stroke="url(#glow)" stroke-width="1" transform="rotate(150.0 800 450)" /><line x1="800" y1="450" x2="1600" y2="450" stroke="url(#glow)" stroke-width="2" transform="rotate(154.28571428571428 800 450)" /><line x1="800" y1="450" x2="1600" y2="450" stroke="url(#glow)" stroke-width="1" transform="rotate(158.57142857142856 800 450)" /><line x1="800" y1="450" x2="1600" y2="450" stroke="url(#glow)" stroke-width="2" transform="rotate(162.85714285714286 800 450)" /><line x1="800" y1="450" x2="1600" y2="450" stroke="url(#glow)" stroke-width="1" transform="rotate(167.14285714285714 800 450)" /><line x1="800" y1="450" x2="1600" y2="450" stroke="url(#glow)" stroke-width="2" transform="rotate(171.42857142857142 800 450)" /><line x1="800" y1="450" x2="1600" y2="450" stroke="url(#glow)" stroke-width="1" transform="rotate(175.71428571428572 800 450)" /><line x1="800" y1="450" x2="1600" y2="450" stroke="url(#glow)" stroke-width="2" transform="rotate(180.0 800 450)" /><line x1="800" y1="450" x2="1600" y2="450" stroke="url(#glow)" stroke-width="1" transform="rotate(184.28571428571428 800 450)" /><line x1="800" y1="450" x2="1600" y2="450" stroke="url(#glow)" stroke-width="2" transform="rotate(188.57142857142856 800 450)" /><line x1="800" y1="450" x2="1600" y2="450" stroke="url(#glow)" stroke-width="1" transform="rotate(192.85714285714286 800 450)" /><line x1="800" y1="450" x2="1600" y2="450" stroke="url(#glow)" stroke-width="2" transform="rotate(197.14285714285714 800 450)" /><line x1="800" y1="450" x2="1600" y2="450" stroke="url(#glow)" stroke-width="1" transform="rotate(201.42857142857142 800 450)" /><line x1="800" y1="450" x2="1600" y2="450" stroke="url(#glow)" stroke-width="2" transform="rotate(205.71428571428572 800 450)" /><line x1="800" y1="450" x2="1600" y2="450" stroke="url(#glow)" stroke-width="1" transform="rotate(210.0 800 450)" /><line x1="800" y1="450" x2="1600" y2="450" stroke="url(#glow)" stroke-width="2" transform="rotate(214.28571428571428 800 450)" /><line x1="800" y1="450" x2="1600" y2="450" stroke="url(#glow)" stroke-width="1" transform="rotate(218.57142857142856 800 450)" /><line x1="800" y1="450" x2="1600" y2="450" stroke="url(#glow)" stroke-width="2" transform="rotate(222.85714285714286 800 450)" /><line x1="800" y1="450" x2="1600" y2="450" stroke="url(#glow)" stroke-width="1" transform="rotate(227.14285714285714 800 450)" /><line x1="800" y1="450" x2="1600" y2="450" stroke="url(#glow)" stroke-width="2" transform="rotate(231.42857142857142 800 450)" /><line x1="800" y1="450" x2="1600" y2="450" stroke="url(#glow)" stroke-width="1" transform="rotate(235.7142857142857 800 450)" /><line x1="800" y1="450" x2="1600" y2="450" stroke="url(#glow)" stroke-width="2" transform="rotate(240.0 800 450)" /><line x1="800" y1="450" x2="1600" y2="450" stroke="url(#glow)" stroke-width="1" transform="rotate(244.28571428571428 800 450)" /><line x1="800" y1="450" x2="1600" y2="450" stroke="url(#glow)" stroke-width="2" transform="rotate(248.57142857142856 800 450)" /><line x1="800" y1="450" x2="1600" y2="450" stroke="url(#glow)" stroke-width="1" transform="rotate(252.85714285714286 800 450)" /><line x1="800" y1="450" x2="1600" y2="450" stroke="url(#glow)" stroke-width="2" transform="rotate(257.1428571428571 800 450)" /><line x1="800" y1="450" x2="1600" y2="450" stroke="url(#glow)" stroke-width="1" transform="rotate(261.42857142857144 800 450)" /><line x1="800" y1="450" x2="1600" y2="450" stroke="url(#glow)" stroke-width="2" transform="rotate(265.7142857142857 800 450)" /><line x1="800" y1="450" x2="1600" y2="450" stroke="url(#glow)" stroke-width="1" transform="rotate(270.0 800 450)" /><line x1="800" y1="450" x2="1600" y2="450" stroke="url(#glow)" stroke-width="2" transform="rotate(274.2857142857143 800 450)" /><line x1="800" y1="450" x2="1600" y2="450" stroke="url(#glow)" stroke-width="1" transform="rotate(278.57142857142856 800 450)" /><line x1="800" y1="450" x2="1600" y2="450" stroke="url(#glow)" stroke-width="2" transform="rotate(282.85714285714283 800 450)" /><line x1="800" y1="450" x2="1600" y2="450" stroke="url(#glow)" stroke-width="1" transform="rotate(287.1428571428571 800 450)" /><line x1="800" y1="450" x2="1600" y2="450" stroke="url(#glow)" stroke-width="2" transform="rotate(291.42857142857144 800 450)" /><line x1="800" y1="450" x2="1600" y2="450" stroke="url(#glow)" stroke-width="1" transform="rotate(295.7142857142857 800 450)" /><line x1="800" y1="450" x2="1600" y2="450" stroke="url(#glow)" stroke-width="2" transform="rotate(300.0 800 450)" /><line x1="800" y1="450" x2="1600" y2="450" stroke="url(#glow)" stroke-width="1" transform="rotate(304.2857142857143 800 450)" /><line x1="800" y1="450" x2="1600" y2="450" stroke="url(#glow)" stroke-width="2" transform="rotate(308.57142857142856 800 450)" /><line x1="800" y1="450" x2="1600" y2="450" stroke="url(#glow)" stroke-width="1" transform="rotate(312.85714285714283 800 450)" /><line x1="800" y1="450" x2="1600" y2="450" stroke="url(#glow)" stroke-width="2" transform="rotate(317.1428571428571 800 450)" /><line x1="800" y1="450" x2="1600" y2="450" stroke="url(#glow)" stroke-width="1" transform="rotate(321.42857142857144 800 450)" /><line x1="800" y1="450" x2="1600" y2="450" stroke="url(#glow)" stroke-width="2" transform="rotate(325.7142857142857 800 450)" /><line x1="800" y1="450" x2="1600" y2="450" stroke="url(#glow)" stroke-width="1" transform="rotate(330.0 800 450)" /><line x1="800" y1="450" x2="1600" y2="450" stroke="url(#glow)" stroke-width="2" transform="rotate(334.2857142857143 800 450)" /><line x1="800" y1="450" x2="1600" y2="450" stroke="url(#glow)" stroke-width="1" transform="rotate(338.57142857142856 800 450)" /><line x1="800" y1="450" x2="1600" y2="450" stroke="url(#glow)" stroke-width="2" transform="rotate(342.85714285714283 800 450)" /><line x1="800" y1="450" x2="1600" y2="450" stroke="url(#glow)" stroke-width="1" transform="rotate(347.1428571428571 800 450)" /><line x1="800" y1="450" x2="1600" y2="450" stroke="url(#glow)" stroke-width="2" transform="rotate(351.42857142857144 800 450)" /><line x1="800" y1="450" x2="1600" y2="450" stroke="url(#glow)" stroke-width="1" transform="rotate(355.7142857142857 800 450)" />
  </g>
</svg>