<svg xmlns="http://www.w3.org/2000/svg" viewBox="0 0 1600 900">
  <defs>
    <linearGradient id="glow" x1="0" y1="0" x2="1" y2="0">
      <stop offset="0%" stop-color="rgba(255,255,255,0.0)"/>
      <stop offset="30%" stop-color="rgba(255,250,230,0.90)"/>
      <stop offset="75%" stop-color="rgba(240,220,170,0.55)"/>
      <stop offset="100%" stop-color="rgba(240,220,170,0.0)"/>
    </linearGradient>
  </defs>
  <g opacity="0.55">
    <line x1="800" y1="450" x2="1600" y2="450" stroke="url(#glow)" stroke-width="2" transform="rotate(0.0 800 450)" /><line x1="800" y1="450" x2="1600" y2="450" stroke="url(#glow)" stroke-width="1" transform="rotate(5.0 800 450)" /><line x1="800" y1="450" x2="1600" y2="450" stroke="url(#glow)" stroke-width="1" transform="rotate(10.0 800 450)" /><line x1="800" y1="450" x2="1600" y2="450" stroke="url(#glow)" stroke-width="2" transform="rotate(15.0 800 450)" /><line x1="800" y1="450" x2="1600" y2="450" stroke="url(#glow)" stroke-width="1" transform="rotate(20.0 800 450)" /><line x1="800" y1="450" x2="1600" y2="450" stroke="url(#glow)" stroke-width="1" transform="rotate(25.0 800 450)" /><line x1="800" y1="450" x2="1600" y2="450" stroke="url(#glow)" stroke-width="2" transform="rotate(30.0 800 450)" /><line x1="800" y1="450" x2="1600" y2="450" stroke="url(#glow)" stroke-width="1" transform="rotate(35.0 800 450)" /><line x1="800" y1="450" x2="1600" y2="450" stroke="url(#glow)" stroke-width="1" transform="rotate(40.0 800 450)" /><line x1="800" y1="450" x2="1600" y2="450" stroke="url(#glow)" stroke-width="2" transform="rotate(45.0 800 450)" /><line x1="800" y1="450" x2="1600" y2="450" stroke="url(#glow)" stroke-width="1" transform="rotate(50.0 800 450)" /><line x1="800" y1="450" x2="1600" y2="450" stroke="url(#glow)" stroke-width="1" transform="rotate(55.0 800 450)" /><line x1="800" y1="450" x2="1600" y2="450" stroke="url(#glow)" stroke-width="2" transform="rotate(60.0 800 450)" /><line x1="800" y1="450" x2="1600" y2="450" stroke="url(#glow)" stroke-width="1" transform="rotate(65.0 800 450)" /><line x1="800" y1="450" x2="1600" y2="450" stroke="url(#glow)" stroke-width="1" transform="rotate(70.0 800 450)" /><line x1="800" y1="450" x2="1600" y2="450" stroke="url(#glow)" stroke-width="2" transform="rotate(75.0 800 450)" /><line x1="800" y1="450" x2="1600" y2="450" stroke="url(#glow)" stroke-width="1" transform="rotate(80.0 800 450)" /><line x1="800" y1="450" x2="1600" y2="450" stroke="url(#glow)" stroke-width="1" transform="rotate(85.0 800 450)" /><line x1="800" y1="450" x2="1600" y2="450" stroke="url(#glow)" stroke-width="2" transform="rotate(90.0 800 450)" /><line x1="800" y1="450" x2="1600" y2="450" stroke="url(#glow)" stroke-width="1" transform="rotate(95.0 800 450)" /><line x1="800" y1="450" x2="1600" y2="450" stroke="url(#glow)" stroke-width="1" transform="rotate(100.0 800 450)" /><line x1="800" y1="450" x2="1600" y2="450" stroke="url(#glow)" stroke-width="2" transform="rotate(105.0 800 450)" /><line x1="800" y1="450" x2="1600" y2="450" stroke="url(#glow)" stroke-width="1" transform="rotate(110.0 800 450)" /><line x1="800" y1="450" x2="1600" y2="450" stroke="url(#glow)" stroke-width="1" transform="rotate(115.0 800 450)" /><line x1="800" y1="450" x2="1600" y2="450" stroke="url(#glow)" stroke-width="2" transform="rotate(120.0 800 450)" /><line x1="800" y1="450" x2="1600" y2="450" stroke="url(#glow)" stroke-width="1" transform="rotate(125.0 800 450)" /><line x1="800" y1="450" x2="1600" y2="450" stroke="url(#glow)" stroke-width="1" transform="rotate(130.0 800 450)" /><line x1="800" y1="450" x2="1600" y2="450" stroke="url(#glow)" stroke-width="2" transform="rotate(135.0 800 450)" /><line x1="800" y1="450" x2="1600" y2="450" stroke="url(#glow)" stroke-width="1" transform="rotate(140.0 800 450)" /><line x1="800" y1="450" x2="1600" y2="450" stroke="url(#glow)" stroke-width="1" transform="rotate(145.0 800 450)" /><line x1="800" y1="450" x2="1600" y2="450" stroke="url(#glow)" stroke-width="2" transform="rotate(150.0 800 450)" /><line x1="800" y1="450" x2="1600" y2="450" stroke="url(#glow)" stroke-width="1" transform="rotate(155.0 800 450)" /><line x1="800" y1="450" x2="1600" y2="450" stroke="url(#glow)" stroke-width="1" transform="rotate(160.0 800 450)" /><line x1="800" y1="450" x2="1600" y2="450" stroke="url(#glow)" stroke-width="2" transform="rotate(165.0 800 450)" /><line x1="800" y1="450" x2="1600" y2="450" stroke="url(#glow)" stroke-width="1" transform="rotate(170.0 800 450)" /><line x1="800" y1="450" x2="1600" y2="450" stroke="url(#glow)" stroke-width="1" transform="rotate(175.0 800 450)" /><line x1="800" y1="450" x2="1600" y2="450" stroke="url(#glow)" stroke-width="2" transform="rotate(180.0 800 450)" /><line x1="800" y1="450" x2="1600" y2="450" stroke="url(#glow)" stroke-width="1" transform="rotate(185.0 800 450)" /><line x1="800" y1="450" x2="1600" y2="450" stroke="url(#glow)" stroke-width="1" transform="rotate(190.0 800 450)" /><line x1="800" y1="450" x2="1600" y2="450" stroke="url(#glow)" stroke-width="2" transform="rotate(195.0 800 450)" /><line x1="800" y1="450" x2="1600" y2="450" stroke="url(#glow)" stroke-width="1" transform="rotate(200.0 800 450)" /><line x1="800" y1="450" x2="1600" y2="450" stroke="url(#glow)" stroke-width="1" transform="rotate(205.0 800 450)" /><line x1="800" y1="450" x2="1600" y2="450" stroke="url(#glow)" stroke-width="2" transform="rotate(210.0 800 450)" /><line x1="800" y1="450" x2="1600" y2="450" stroke="url(#glow)" stroke-width="1" transform="rotate(215.0 800 450)" /><line x1="800" y1="450" x2="1600" y2="450" stroke="url(#glow)" stroke-width="1" transform="rotate(220.0 800 450)" /><line x1="800" y1="450" x2="1600" y2="450" stroke="url(#glow)" stroke-width="2" transform="rotate(225.0 800 450)" /><line x1="800" y1="450" x2="1600" y2="450" stroke="url(#glow)" stroke-width="1" transform="rotate(230.0 800 450)" /><line x1="800" y1="450" x2="1600" y2="450" stroke="url(#glow)" stroke-width="1" transform="rotate(235.0 800 450)" /><line x1="800" y1="450" x2="1600" y2="450" stroke="url(#glow)" stroke-width="2" transform="rotate(240.0 800 450)" /><line x1="800" y1="450" x2="1600" y2="450" stroke="url(#glow)" stroke-width="1" transform="rotate(245.0 800 450)" /><line x1="800" y1="450" x2="1600" y2="450" stroke="url(#glow)" stroke-width="1" transform="rotate(250.0 800 450)" /><line x1="800" y1="450" x2="1600" y2="450" stroke="url(#glow)" stroke-width="2" transform="rotate(255.0 800 450)" /><line x1="800" y1="450" x2="1600" y2="450" stroke="url(#glow)" stroke-width="1" transform="rotate(260.0 800 450)" /><line x1="800" y1="450" x2="1600" y2="450" stroke="url(#glow)" stroke-width="1" transform="rotate(265.0 800 450)" /><line x1="800" y1="450" x2="1600" y2="450" stroke="url(#glow)" stroke-width="2" transform="rotate(270.0 800 450)" /><line x1="800" y1="450" x2="1600" y2="450" stroke="url(#glow)" stroke-width="1" transform="rotate(275.0 800 450)" /><line x1="800" y1="450" x2="1600" y2="450" stroke="url(#glow)" stroke-width="1" transform="rotate(280.0 800 450)" /><line x1="800" y1="450" x2="1600" y2="450" stroke="url(#glow)" stroke-width="2" transform="rotate(285.0 800 450)" /><line x1="800" y1="450" x2="1600" y2="450" stroke="url(#glow)" stroke-width="1" transform="rotate(290.0 800 450)" /><line x1="800" y1="450" x2="1600" y2="450" stroke="url(#glow)" stroke-width="1" transform="rotate(295.0 800 450)" /><line x1="800" y1="450" x2="1600" y2="450" stroke="url(#glow)" stroke-width="2" transform="rotate(300.0 800 450)" /><line x1="800" y1="450" x2="1600" y2="450" stroke="url(#glow)" stroke-width="1" transform="rotate(305.0 800 450)" /><line x1="800" y1="450" x2="1600" y2="450" stroke="url(#glow)" stroke-width="1" transform="rotate(310.0 800 450)" /><line x1="800" y1="450" x2="1600" y2="450" stroke="url(#glow)" stroke-width="2" transform="rotate(315.0 800 450)" /><line x1="800" y1="450" x2="1600" y2="450" stroke="url(#glow)" stroke-width="1" transform="rotate(320.0 800 450)" /><line x1="800" y1="450" x2="1600" y2="450" stroke="url(#glow)" stroke-width="1" transform="rotate(325.0 800 450)" /><line x1="800" y1="450" x2="1600" y2="450" stroke="url(#glow)" stroke-width="2" transform="rotate(330.0 800 450)" /><line x1="800" y1="450" x2="1600" y2="450" stroke="url(#glow)" stroke-width="1" transform="rotate(335.0 800 450)" /><line x1="800" y1="450" x2="1600" y2="450" stroke="url(#glow)" stroke-width="1" transform="rotate(340.0 800 450)" /><line x1="800" y1="450" x2="1600" y2="450" stroke="url(#glow)" stroke-width="2" transform="rotate(345.0 800 450)" /><line x1="800" y1="450" x2="1600" y2="450" stroke="url(#glow)" stroke-width="1" transform="rotate(350.0 800 450)" /><line x1="800" y1="450" x2="1600" y2="450" stroke="url(#glow)" stroke-width="1" transform="rotate(355.0 800 450)" />
  </g>
</svg>